<svg xmlns="http://www.w3.org/2000/svg" xmlns:xlink="http://www.w3.org/1999/xlink" xmlns:sketch="http://www.bohemiancoding.com/sketch/ns" viewBox="0 0 100 125" version="1.1" x="0px" y="0px"><title>bot2_angry</title><desc>Created with Sketch.</desc><g stroke="none" stroke-width="1" fill="none" fill-rule="evenodd" sketch:type="MSPage"><g sketch:type="MSArtboardGroup" fill="#000000"><path d="M20,60 C20,51.7157288 26.7081139,45 35.0050808,45 L64.9949192,45 C73.2819965,45 80,51.7139073 80,60 C80,68.2842712 73.2918861,75 64.9949192,75 L35.0050808,75 C26.7180035,75 20,68.2860927 20,60 Z M31.8382901,59.4644187 L38.8382901,62.4644187 L40.6765801,63.2522573 L42.2522573,59.5756772 L40.4139673,58.7878386 L33.4139673,55.7878386 L31.5756772,55 L30,58.6765801 L31.8382901,59.4644187 Z M68.4139673,59.4644187 L61.4139673,62.4644187 L59.5756772,63.2522573 L58,59.5756772 L59.8382901,58.7878386 L66.8382901,55.7878386 L68.6765801,55 L70.2522573,58.6765801 L68.4139673,59.4644187 Z" sketch:type="MSShapeGroup"/><path d="M50,20 C71.4336483,20 81.3822646,28.613774 86.0000023,36.6100918 L86,11.9417476 L86,10 L90,10 L90,11.9417476 L90,58.0582524 L90,59.0291262 L90,70 C90,70 90,90 50,90 C10,90 10,70 10,70 L10,59.0291262 L10,58.0582524 L10,11.9417476 L10,10 L14,10 L14,11.9417476 L14,36.6100878 C18.6177354,28.613774 28.5663517,20 50,20 Z M14,50 L14,70 C14,69.9724452 14.0069729,70.0770394 14.037923,70.2936896 C14.1025381,70.7459952 14.2244193,71.2741473 14.4197332,71.8600889 C15.0099728,73.6308077 16.093439,75.4365847 17.8284271,77.1715729 C23.24535,82.5884957 33.4798628,86 50,86 C66.5201372,86 76.75465,82.5884957 82.1715729,77.1715729 C83.906561,75.4365847 84.9900272,73.6308077 85.5802668,71.8600889 C85.7755807,71.2741473 85.8974619,70.7459952 85.962077,70.2936896 C85.9930271,70.0770394 86,69.9724452 86,70 L86,50 C86,49.8884469 85.9860708,49.5750394 85.9398931,49.0901739 C85.8573922,48.2239138 85.706612,47.2438431 85.4702518,46.1802218 C84.7903506,43.1206666 83.5663124,40.0605712 81.6717988,37.2188008 C76.1879285,28.9929953 66.2019379,24 50,24 C33.7980621,24 23.8120715,28.9929953 18.3282012,37.2188008 C16.4336876,40.0605712 15.2096494,43.1206666 14.5297482,46.1802218 C14.293388,47.2438431 14.1426078,48.2239138 14.0601069,49.0901739 C14.0161083,49.5521587 14,50 14,50 Z M14,10 C14,8.8954305 13.1045695,8 12,8 C10.8954305,8 10,8.8954305 10,10 L14,10 Z M90,10 C90,8.8954305 89.1045695,8 88,8 C86.8954305,8 86,8.8954305 86,10 L90,10 Z" sketch:type="MSShapeGroup"/></g></g></svg>