<svg xmlns="http://www.w3.org/2000/svg" xmlns:xlink="http://www.w3.org/1999/xlink" version="1.1" x="0px" y="0px" viewBox="0 0 100 100" enable-background="new 0 0 100 100" xml:space="preserve"><g><path d="M47.672,6.312C36.811,25.124,25.949,43.937,15.088,62.749c-1.742,3.017,2.918,5.731,4.656,2.721   C29.829,48.002,39.915,30.534,50,13.065c10.086,17.469,20.171,34.937,30.257,52.406c1.737,3.009,6.397,0.295,4.656-2.721   C74.051,43.937,63.189,25.124,52.328,6.312C51.318,4.563,48.682,4.563,47.672,6.312z"/><path d="M47.672,34.531C36.811,53.343,25.949,72.156,15.088,90.968c-1.742,3.017,2.918,5.731,4.656,2.721   C29.829,76.221,39.915,58.752,50,41.284C60.086,58.752,70.171,76.221,80.257,93.69c1.737,3.009,6.397,0.296,4.656-2.721   C74.051,72.156,63.189,53.343,52.328,34.531C51.318,32.782,48.682,32.782,47.672,34.531z"/></g></svg>