<svg xmlns="http://www.w3.org/2000/svg" xmlns:xlink="http://www.w3.org/1999/xlink" xmlns:sketch="http://www.bohemiancoding.com/sketch/ns" viewBox="0 0 100 125" version="1.1" x="0px" y="0px"><title>bot1_happy</title><desc>Created with Sketch.</desc><g stroke="none" stroke-width="1" fill="none" fill-rule="evenodd" sketch:type="MSPage"><g sketch:type="MSArtboardGroup" fill="#000000"><path d="M33.3832069,61.2316055 C33.4663305,61.1252515 33.7052431,60.8852671 34.0606164,60.6356114 C34.613312,60.2473334 35.2172668,60.0168253 35.8618908,59.9992577 L35.7533604,59.9992696 C36.4066289,60.0169293 37.0106683,60.2470018 37.5592314,60.6337226 C37.910109,60.881081 38.144039,61.1181155 38.2235934,61.221285 L39.4448784,62.8050978 L42.612504,60.3625278 L41.391219,58.778715 C41.0848685,58.3814269 40.5779442,57.8677752 39.8639741,57.3644473 C38.7121463,56.5524427 37.3707855,56.0415318 35.861452,56.0007304 L35.7529217,56.0007423 C34.2523726,56.0416358 32.9148757,56.5521111 31.7612415,57.3625585 C31.0480478,57.8635891 30.5396267,58.374291 30.2316055,58.7683945 L29,60.3441952 L32.1516014,62.8074062 L33.3832069,61.2316055 Z M61.3832069,61.2316055 C61.4663305,61.1252515 61.7052431,60.8852671 62.0606164,60.6356114 C62.613312,60.2473334 63.2172668,60.0168253 63.8618908,59.9992577 L63.7533604,59.9992696 C64.4066289,60.0169293 65.0106683,60.2470018 65.5592314,60.6337226 C65.910109,60.881081 66.144039,61.1181155 66.2235934,61.221285 L67.4448784,62.8050978 L70.612504,60.3625278 L69.391219,58.778715 C69.0848685,58.3814269 68.5779442,57.8677752 67.8639741,57.3644473 C66.7121463,56.5524427 65.3707855,56.0415318 63.861452,56.0007304 L63.7529217,56.0007423 C62.2523726,56.0416358 60.9148757,56.5521111 59.7612415,57.3625585 C59.0480478,57.8635891 58.5396267,58.374291 58.2316055,58.7683945 L57,60.3441952 L60.1516014,62.8074062 L61.3832069,61.2316055 Z" sketch:type="MSShapeGroup"/><path d="M50,20 C71.4336483,20 81.3822646,28.613774 86.0000023,36.6100918 L86,11.9417476 L86,10 L90,10 L90,11.9417476 L90,58.0582524 L90,59.0291262 L90,70 C90,70 90,90 50,90 C10,90 10,70 10,70 L10,59.0291262 L10,58.0582524 L10,11.9417476 L10,10 L14,10 L14,11.9417476 L14,36.6100878 C18.6177354,28.613774 28.5663517,20 50,20 Z M14,50 L14,70 C14,69.9724452 14.0069729,70.0770394 14.037923,70.2936896 C14.1025381,70.7459952 14.2244193,71.2741473 14.4197332,71.8600889 C15.0099728,73.6308077 16.093439,75.4365847 17.8284271,77.1715729 C23.24535,82.5884957 33.4798628,86 50,86 C66.5201372,86 76.75465,82.5884957 82.1715729,77.1715729 C83.906561,75.4365847 84.9900272,73.6308077 85.5802668,71.8600889 C85.7755807,71.2741473 85.8974619,70.7459952 85.962077,70.2936896 C85.9930271,70.0770394 86,69.9724452 86,70 L86,50 C86,49.8884469 85.9860708,49.5750394 85.9398931,49.0901739 C85.8573922,48.2239138 85.706612,47.2438431 85.4702518,46.1802218 C84.7903506,43.1206666 83.5663124,40.0605712 81.6717988,37.2188008 C76.1879285,28.9929953 66.2019379,24 50,24 C33.7980621,24 23.8120715,28.9929953 18.3282012,37.2188008 C16.4336876,40.0605712 15.2096494,43.1206666 14.5297482,46.1802218 C14.293388,47.2438431 14.1426078,48.2239138 14.0601069,49.0901739 C14.0161083,49.5521587 14,50 14,50 Z M24,60 C24,66.0759462 28.9261349,71 35.0050808,71 L64.9949192,71 C71.079227,71 76,66.0786527 76,60 C76,53.9240538 71.0738651,49 64.9949192,49 L35.0050808,49 C28.920773,49 24,53.9213473 24,60 Z M20,60 C20,51.7157288 26.7081139,45 35.0050808,45 L64.9949192,45 C73.2819965,45 80,51.7139073 80,60 C80,68.2842712 73.2918861,75 64.9949192,75 L35.0050808,75 C26.7180035,75 20,68.2860927 20,60 Z M14,10 C14,8.8954305 13.1045695,8 12,8 C10.8954305,8 10,8.8954305 10,10 L14,10 Z M90,10 C90,8.8954305 89.1045695,8 88,8 C86.8954305,8 86,8.8954305 86,10 L90,10 Z" sketch:type="MSShapeGroup"/></g></g></svg>