<svg xmlns="http://www.w3.org/2000/svg" viewBox="1897 69 17.304 15.715">
  <g id="noun_1058895_cc" transform="translate(1897 69)">
    <g id="Group_57" data-name="Group 57" transform="translate(0 0)">
      <g id="Group_56" data-name="Group 56">
        <g id="Group_55" data-name="Group 55">
          <path id="Path_6" data-name="Path 6" d="M9.232,11.232h1.5a.748.748,0,0,1,0,1.5H8.48a.751.751,0,0,1-.745-.752V8.99a.748.748,0,1,1,1.5,0Zm7.482-.218.312-.312a.748.748,0,0,1,1.058,1.058L16.5,13.349a.746.746,0,0,1-1.058,0L13.85,11.761A.748.748,0,0,1,14.909,10.7l.308.308q0-.076,0-.153a6.361,6.361,0,1,0-2.343,4.932l1.218.928a7.858,7.858,0,1,1,2.622-5.86Q16.715,10.936,16.714,11.014Z" transform="translate(-1 -3)"/>
        </g>
      </g>
    </g>
  </g>
</svg>
