<svg xmlns="http://www.w3.org/2000/svg" viewBox="1969 1541 150 150">
  <defs>
    <style>
      .cls-1 {
        fill: #fff;
        stroke: #3e94e9;
        stroke-width: 5px;
      }

      .cls-2 {
        fill: #3e94e9;
      }

      .cls-3 {
        stroke: none;
      }

      .cls-4 {
        fill: none;
      }
    </style>
  </defs>
  <g id="Group_93" data-name="Group 93" transform="translate(1772 1141)">
    <g id="Ellipse_68" data-name="Ellipse 68" class="cls-1" transform="translate(197 400)">
      <circle class="cls-3" cx="75" cy="75" r="75"/>
      <circle class="cls-4" cx="75" cy="75" r="72.5"/>
    </g>
    <g id="noun_848671_cc" transform="matrix(-0.891, -0.454, 0.454, -0.891, 294.304, 544.782)">
      <path id="Path_29" data-name="Path 29" class="cls-2" d="M84.588,34.58c2.412-3.572,4.682-6.945,3.991-10A5.477,5.477,0,0,0,85.8,21.069c-1.974-1.165-3.77-.737-5.687.849.008-.348.012-.705.012-1.073A5.679,5.679,0,0,0,76.567,15.7a4.456,4.456,0,0,0-5.037,1.4c-.006.006-.014.016-.019.022-.018-.178-.036-.357-.057-.539a4.752,4.752,0,0,0-3.5-4.062,5.519,5.519,0,0,0-5.466,1.449,3.431,3.431,0,0,0-2.063-2.66c-2.188-.933-5.637.089-8.026,2.384a29.126,29.126,0,0,0-3.571,3.965l-.077.1a0,0,0,0,1,0,0c-.324.4-.808.935-1.411,1.6a75.951,75.951,0,0,0-8.871,11.528c-1.575,2.555-2.037,6.214-2.526,10.085-.484,3.83-.985,7.791-2.6,10.241-2.1,3.183-17.738,21.48-17.9,21.664a1.494,1.494,0,1,0,2.271,1.941c.648-.759,15.914-18.623,18.118-21.959,2-3.031,2.548-7.343,3.074-11.513.448-3.541.87-6.886,2.106-8.892a73.165,73.165,0,0,1,8.543-11.091c.649-.719,1.164-1.287,1.529-1.743h0l.078-.1A26.074,26.074,0,0,1,54.47,15.84c1.712-1.644,3.94-2.151,4.78-1.79.13.056.327.14.326.711a9.172,9.172,0,0,1-.945,3.989c-1.8,2.273-3.8,4.805-5.773,7.391a1.494,1.494,0,1,0,2.376,1.812c2.754-3.609,5.563-7.133,7.82-9.964l1.458-1.831a2.5,2.5,0,0,1,2.619-.772,1.765,1.765,0,0,1,1.355,1.529,8.876,8.876,0,0,1-.5,4.625,1.014,1.014,0,0,0-.031.136c-.841,1.151-1.723,2.386-2.624,3.65-1.426,2-2.9,4.061-4.212,5.785a1.494,1.494,0,0,0,2.378,1.81c1.34-1.76,2.827-3.844,4.265-5.858,2.176-3.049,4.427-6.2,6.007-7.994a1.489,1.489,0,0,1,1.738-.579,2.746,2.746,0,0,1,1.628,2.353,13.219,13.219,0,0,1-.671,5.1c-1.262,1.653-2.623,3.61-4.148,5.809-1.057,1.524-2.2,3.173-3.447,4.918A1.494,1.494,0,1,0,71.3,38.405c1.255-1.757,2.406-3.417,3.471-4.952,1.317-1.9,2.523-3.634,3.619-5.113a1.441,1.441,0,0,0,.377-.392c.089-.135.161-.281.239-.424,2.274-2.962,4.038-4.614,5.272-3.883,1.179.695,1.332,1.369,1.382,1.592.408,1.806-1.614,4.8-3.572,7.7-.5.741-1.007,1.492-1.492,2.246-.462.718-1.925,3.02-3.552,5.579-2.307,3.627-5.175,8.14-5.55,8.7a1.495,1.495,0,0,0,2.49,1.654c.389-.586,3.147-4.924,5.581-8.751l2.465-3.874c.4,3.136.847,6.884.069,8.258l-.524.928c-2.3,4.065-6.575,11.634-8.52,12.708a51.732,51.732,0,0,1-6.911,2.733c-3.789,1.316-7.06,2.451-8.56,3.825-2.317,2.125-16.583,21.734-18.2,23.963A1.494,1.494,0,1,0,41.8,92.658C48.091,84,58.022,70.6,59.608,69.141c1.044-.956,4.486-2.151,7.522-3.2A53.1,53.1,0,0,0,74.505,63c2.483-1.372,5.851-7.086,9.677-13.854l.523-.925c1.3-2.292.789-6.263.249-10.468C84.81,36.624,84.681,35.568,84.588,34.58Z"/>
    </g>
  </g>
</svg>
