<svg xmlns="http://www.w3.org/2000/svg" viewBox="1731 69 33.258 15.52">
  <g id="noun_975250_cc" transform="translate(1731 69)">
    <g id="Group_54" data-name="Group 54" transform="translate(0)">
      <path id="Path_5" data-name="Path 5" d="M12.76,981.362a7.76,7.76,0,1,0,7.506,9.608h2.725a7.747,7.747,0,1,0,7.506-9.608Zm0,1.478H30.5a6.282,6.282,0,1,1-6.2,7.275.739.739,0,0,0-.727-.624h-3.88a.739.739,0,0,0-.728.624,6.281,6.281,0,1,1-6.2-7.275Zm0,2.587a.739.739,0,0,0-.739.739v2.217H9.8a.739.739,0,0,0,0,1.478h2.217v2.217a.739.739,0,1,0,1.478,0v-2.217h2.217a.739.739,0,0,0,0-1.478H13.5v-2.217A.739.739,0,0,0,12.76,985.427Zm15.89.739a1.109,1.109,0,1,0,1.109,1.109A1.109,1.109,0,0,0,28.65,986.166Zm3.7,3.7a1.109,1.109,0,1,0,1.109,1.109A1.109,1.109,0,0,0,32.345,989.861Z" transform="translate(-5 -981.362)"/>
    </g>
  </g>
</svg>
