<svg xmlns="http://www.w3.org/2000/svg" viewBox="2048 69 16.631 15.522">
  <g id="noun_1000310_cc" transform="translate(2048 69)">
    <path id="Path_7" data-name="Path 7" d="M20,35.859a1.663,1.663,0,1,1,1.663,1.663A1.663,1.663,0,0,1,20,35.859Zm1.663-10.533A1.663,1.663,0,1,0,20,23.663,1.663,1.663,0,0,0,21.663,25.326Zm0,6.1A1.663,1.663,0,1,0,20,29.761,1.663,1.663,0,0,0,21.663,31.424Zm5.544-6.652h8.315a1.109,1.109,0,0,0,0-2.217H27.207a1.109,1.109,0,1,0,0,2.217Zm0,6.1h8.315a1.109,1.109,0,0,0,0-2.217H27.207a1.109,1.109,0,1,0,0,2.217Zm0,6.1h8.315a1.109,1.109,0,0,0,0-2.217H27.207a1.109,1.109,0,1,0,0,2.217Z" transform="translate(-20 -22)"/>
  </g>
</svg>
