<svg xmlns="http://www.w3.org/2000/svg" viewBox="464 452 12 17.561">
  <defs>
    <style>
      .cls-1 {
        fill: #3690e9;
      }
    </style>
  </defs>
  <g id="noun_1074929_cc" transform="translate(434.5 432)">
    <path id="Path_2" data-name="Path 2" class="cls-1" d="M41.061,37.561H29.939a.45.45,0,0,1-.439-.439v-9.4a.45.45,0,0,1,.439-.439H41.061a.45.45,0,0,1,.439.439v9.4A.431.431,0,0,1,41.061,37.561Zm-10.683-.878H40.651V28.166H30.378Zm1.229-9.98V24.771a3.893,3.893,0,0,1,7.785,0V26.7h.878V24.771a4.771,4.771,0,1,0-9.541,0V26.7h.878Z" transform="translate(0 0)"/>
  </g>
</svg>
