<svg xmlns="http://www.w3.org/2000/svg" viewBox="458 312 24.6 16.4">
  <defs>
    <style>
      .cls-1 {
        fill: #3690e9;
      }
    </style>
  </defs>
  <g id="noun_1052184_cc" transform="translate(374 255)">
    <g id="Group_38" data-name="Group 38" transform="translate(84 57)">
      <path id="Path_1" data-name="Path 1" class="cls-1" d="M10.05,974.362A2.052,2.052,0,0,0,8,976.412v12.3a2.052,2.052,0,0,0,2.05,2.05h20.5a2.052,2.052,0,0,0,2.05-2.05v-12.3a2.052,2.052,0,0,0-2.05-2.05H10.05Zm0,.586h20.5a1.455,1.455,0,0,1,1.464,1.464v12.3a1.455,1.455,0,0,1-1.464,1.464H10.05a1.455,1.455,0,0,1-1.464-1.464v-12.3A1.455,1.455,0,0,1,10.05,974.948Zm19.146,2.91a.293.293,0,0,0-.156.091l-7.733,7.13a1.47,1.47,0,0,1-2.032,0l-7.715-7.13a.292.292,0,1,0-.394.43l4.612,4.256-4.612,4.1a.295.295,0,0,0,.394.439l4.612-4.1a.294.294,0,0,0,.037-.037l2.672,2.471a2.065,2.065,0,0,0,2.819,0l2.681-2.48a.291.291,0,0,0,.046.046l4.612,4.1a.295.295,0,0,0,.394-.439l-4.612-4.1,4.612-4.256a.293.293,0,0,0-.238-.522Z" transform="translate(-8 -974.362)"/>
    </g>
  </g>
</svg>
