<svg xmlns="http://www.w3.org/2000/svg" xmlns:xlink="http://www.w3.org/1999/xlink" viewBox="0 0 43 75" version="1.1" x="0px" y="0px"><title>89 -Man Hairstyle- (Outline)</title><desc>Created with Sketch.</desc><g stroke="none" stroke-width="1" fill="none" fill-rule="evenodd"><g transform="translate(-1087.000000, -1306.000000)" fill="#000000"><g transform="translate(1087.000000, 1306.000000)"><path d="M30.9517,60 C30.3987,60 29.9517,59.553 29.9517,59 L29.9517,53.9 C29.8257,53.984 29.7007,54.068 29.5747,54.152 L28.6277,54.789 C28.2487,55.046 27.8787,55.319 27.5097,55.592 C25.9087,56.776 24.2537,58 21.9247,58 C19.5957,58 17.9397,56.776 16.3397,55.592 C15.9707,55.319 15.5997,55.046 15.2217,54.789 L14.2977,54.167 C14.1817,54.091 14.0667,54.014 13.9517,53.937 L13.9517,59 C13.9517,59.553 13.5047,60 12.9517,60 C12.3987,60 11.9517,59.553 11.9517,59 L11.9517,52.041 C11.9517,51.668 12.1597,51.325 12.4917,51.153 C12.8237,50.981 13.2227,51.009 13.5277,51.224 C14.1477,51.661 14.7787,52.083 15.4097,52.505 L16.3437,53.133 C16.7457,53.405 17.1377,53.695 17.5277,53.984 C18.9307,55.021 20.2547,56 21.9247,56 C23.5947,56 24.9187,55.021 26.3207,53.984 C26.7117,53.695 27.1027,53.405 27.5047,53.133 L28.4637,52.489 C29.1037,52.062 29.7457,51.633 30.3737,51.187 C30.6797,50.974 31.0797,50.945 31.4107,51.115 C31.7427,51.287 31.9517,51.63 31.9517,52.004 L31.9517,59 C31.9517,59.553 31.5047,60 30.9517,60"/><path d="M10.4478,18.4805 C8.6608,18.4805 7.0238,19.4415 6.3438,21.0525 C6.0838,21.6685 5.9518,22.3245 5.9518,23.0005 L5.9248,32.1165 C5.9248,38.0605 6.3038,44.7655 10.8388,49.0695 C12.1938,50.3565 13.8088,51.4365 15.3718,52.4805 L16.3438,53.1325 C16.7458,53.4055 17.1368,53.6955 17.5278,53.9845 C18.9298,55.0205 20.2548,56.0005 21.9248,56.0005 C23.5938,56.0005 24.9188,55.0205 26.3208,53.9845 C26.7118,53.6955 27.1028,53.4055 27.5048,53.1325 L28.4768,52.4805 C30.0398,51.4365 31.6548,50.3565 33.0098,49.0695 C37.3528,44.9475 37.9518,38.4295 37.9518,32.0005 L37.9518,23.0005 C37.9518,22.3255 37.8198,21.6685 37.5588,21.0505 C36.6598,18.9225 34.0918,17.9285 31.7078,18.7905 C30.1818,19.3415 27.2518,20.0005 21.9518,20.0005 C16.6518,20.0005 13.7208,19.3415 12.1958,18.7905 C11.6158,18.5805 11.0238,18.4805 10.4478,18.4805 M21.9248,58.0005 C19.5948,58.0005 17.9398,56.7765 16.3398,55.5915 C15.9698,55.3195 15.5998,55.0455 15.2208,54.7895 L14.2608,54.1435 C12.6288,53.0525 10.9398,51.9235 9.4618,50.5205 C4.5948,45.9005 3.9248,38.9435 3.9248,32.1135 L3.9518,22.9975 C3.9518,22.0555 4.1358,21.1385 4.5008,20.2745 C5.8158,17.1645 9.4968,15.6825 12.8758,16.9095 C14.2508,17.4075 16.9418,18.0005 21.9518,18.0005 C26.9618,18.0005 29.6528,17.4075 31.0278,16.9095 C34.4068,15.6895 38.0878,17.1635 39.4018,20.2735 C39.7668,21.1395 39.9518,22.0565 39.9518,23.0005 L39.9518,32.0005 C39.9518,38.8765 39.2778,45.8775 34.3868,50.5205 C32.9088,51.9235 31.2198,53.0525 29.5888,54.1435 L28.6278,54.7895 C28.2488,55.0455 27.8788,55.3195 27.5098,55.5915 C25.9088,56.7765 24.2538,58.0005 21.9248,58.0005"/><path d="M33.4526,16.4805 C36.0236,16.4805 38.3996,17.9025 39.4016,20.2735 C39.7666,21.1385 39.9516,22.0555 39.9516,23.0005 L39.9516,25.3375 C42.0016,19.5385 40.5986,16.3255 39.4016,14.8095 C38.1376,13.2075 36.9126,11.6245 35.8296,9.8915 L34.2966,7.4385 C33.6036,6.3295 32.6386,5.4005 31.5026,4.7515 L29.6486,3.6935 C27.7106,2.5855 25.5066,2.0005 23.2726,2.0005 L16.9736,2.0005 C15.2596,2.0005 13.5886,2.6045 12.2686,3.7035 L10.1316,5.4855 C9.2446,6.2245 8.5356,7.1755 8.0816,8.2355 L7.7026,9.1195 C6.9026,10.9865 5.8396,12.8435 4.2566,15.1415 C3.2126,16.6575 2.0206,19.8085 3.9446,25.3025 L3.9516,22.9975 C3.9516,22.0555 4.1366,21.1385 4.5006,20.2745 C5.8156,17.1645 9.4926,15.6825 12.8756,16.9095 C14.2506,17.4075 16.9416,18.0005 21.9516,18.0005 C26.9616,18.0005 29.6526,17.4075 31.0276,16.9095 C31.8306,16.6185 32.6516,16.4805 33.4526,16.4805 L33.4526,16.4805 Z M37.9516,33.9835 L37.9516,23.0005 C37.9516,22.3245 37.8196,21.6685 37.5586,21.0515 C36.6596,18.9225 34.0916,17.9285 31.7076,18.7905 C30.1816,19.3415 27.2516,20.0005 21.9516,20.0005 C16.6516,20.0005 13.7216,19.3415 12.1956,18.7905 C9.8116,17.9285 7.2446,18.9215 6.3436,21.0525 C6.0836,21.6685 5.9516,22.3245 5.9516,23.0005 L5.9196,33.9295 L4.0496,30.4305 C-0.7994,21.3575 1.0656,16.2465 2.6096,14.0065 C4.1146,11.8235 5.1186,10.0725 5.8646,8.3315 L6.2436,7.4475 C6.8206,6.0995 7.7226,4.8895 8.8496,3.9495 L10.9886,2.1665 C12.6666,0.7695 14.7926,0.0005 16.9736,0.0005 L23.2726,0.0005 C25.8536,0.0005 28.4016,0.6765 30.6406,1.9575 L32.4946,3.0155 C33.9166,3.8275 35.1256,4.9905 35.9926,6.3785 L37.5246,8.8315 C38.5546,10.4785 39.7426,12.0135 40.9726,13.5715 C42.7326,15.8025 44.9276,20.9655 39.8336,30.4725 L37.9516,33.9835 Z"/></g></g></g></svg>