<svg xmlns="http://www.w3.org/2000/svg" viewBox="2259 1541 150 150">
  <defs>
    <style>
      .cls-1 {
        fill: #fff;
        stroke: #3e94e9;
        stroke-width: 5px;
      }

      .cls-2 {
        fill: #3e94e9;
      }

      .cls-3 {
        stroke: none;
      }

      .cls-4 {
        fill: none;
      }
    </style>
  </defs>
  <g id="Group_91" data-name="Group 91" transform="translate(1808 1307)">
    <g id="Ellipse_66" data-name="Ellipse 66" class="cls-1" transform="translate(451 234)">
      <circle class="cls-3" cx="75" cy="75" r="75"/>
      <circle class="cls-4" cx="75" cy="75" r="72.5"/>
    </g>
    <g id="noun_848669_cc" transform="translate(545.885 240.456) rotate(59)">
      <path id="Path_27" data-name="Path 27" class="cls-2" d="M69.778,38.465a3.867,3.867,0,0,0-2.791.374,8.213,8.213,0,0,0-1.252-5.358,4.918,4.918,0,0,0-3.312-1.959,5.9,5.9,0,0,0-4.536.74,5.443,5.443,0,0,0-1.8,3.037c.292-5.986.815-15.318,1.073-18.047.508-5.381.008-8.579-1.622-10.37a4.679,4.679,0,0,0-3.618-1.509c-4.771,0-5.22,5.146-6.2,16.419L45.6,23.127c-.227,2.582-.4,5.118-.549,7.356-.222,3.275-.464,6.86-.827,8.979A103.163,103.163,0,0,1,41.27,26.207c-1.358-8.025-2.178-12.869-5.025-14.728a5.127,5.127,0,0,0-4.2-.523c-3.758.943-2.964,5.932-2.124,11.213l.23,1.465c.286,1.857.6,3.655.907,5.449.676,3.913,1.376,7.959,1.77,12.519.046.538.151,1.657.287,3.11a1.354,1.354,0,0,0-.319.238l-.808.9c-4.282,4.747-6.867,7.612-5.036,13.29A117.129,117.129,0,0,0,34.288,76.69c2.367,4.718.784,15.243.768,15.349a1.417,1.417,0,0,0,1.185,1.616,1.343,1.343,0,0,0,.218.017,1.418,1.418,0,0,0,1.4-1.2c.072-.468,1.736-11.526-1.036-17.052a114.4,114.4,0,0,1-7.168-17.152c-1.259-3.9.192-5.793,3.814-9.824.313,3.359.675,7.268.934,10.294a1.417,1.417,0,0,0,1.411,1.3c.041,0,.081,0,.122-.005A1.418,1.418,0,0,0,37.227,58.5c-.331-3.875-.831-9.208-1.184-12.968-.185-1.972-.33-3.509-.387-4.171-.4-4.679-1.115-8.786-1.8-12.757-.307-1.778-.615-3.559-.9-5.4l-.233-1.479c-.518-3.252-1.226-7.707.015-8.019a2.289,2.289,0,0,1,1.957.148c1.809,1.181,2.679,6.321,3.78,12.827,2.943,17.4,4.763,17.239,5.975,17.13,2.556-.229,2.83-4.273,3.429-13.136.15-2.225.321-4.746.545-7.3l.117-1.336c.858-9.838,1.29-13.831,3.38-13.831a1.868,1.868,0,0,1,1.521.582c1,1.1,1.305,3.861.9,8.2C54,20.6,53.237,34.871,53.073,39.243c-.024.644-.062,1.187-.094,1.644-.107,1.52-.24,3.411,1.794,3.712a2.124,2.124,0,0,0,1.609-.429c1.052-.8,1.686-2.688,2.119-6.3.223-1.859.584-2.956,1.1-3.353a3.419,3.419,0,0,1,2.4-.19,2.057,2.057,0,0,1,1.449.836c.693.942.9,2.707.573,4.843-.152.988-.488,2.609-.878,4.486-.111.538-.229,1.1-.349,1.691,0,.016-.009.041-.011.053v0c-.1.495-.205,1-.31,1.522a1.417,1.417,0,0,0,2.779.559q.159-.792.313-1.541c.335-1.655,1.346-4.572,2.648-5.4a1.068,1.068,0,0,1,.889-.159c2.552.621,2.662,1.988,2.337,6.053-.054.68-.11,1.382-.142,2.1-.279,6.268-.851,7.965-2.548,13l-.491,1.461a28.744,28.744,0,0,1-4.287,8.179c-1.291,1.83-2.406,3.41-2.39,5.6.05,7.146.168,14.665.168,14.665a1.418,1.418,0,0,0,1.417,1.4h.022a1.417,1.417,0,0,0,1.395-1.439s-.117-7.507-.167-14.642c-.009-1.225.6-2.145,1.871-3.945a31.673,31.673,0,0,0,4.659-8.914l.489-1.455c1.745-5.176,2.4-7.113,2.694-13.781.03-.683.084-1.352.136-2C74.562,43.847,74.893,39.709,69.778,38.465Z"/>
    </g>
  </g>
</svg>
