<svg xmlns="http://www.w3.org/2000/svg" viewBox="2549 1543 150 150">
  <defs>
    <style>
      .cls-1 {
        fill: #fff;
        stroke: #3e94e9;
        stroke-width: 5px;
      }

      .cls-2 {
        fill: #3e94e9;
      }

      .cls-3 {
        stroke: none;
      }

      .cls-4 {
        fill: none;
      }
    </style>
  </defs>
  <g id="Group_92" data-name="Group 92" transform="translate(1858 1269)">
    <g id="Ellipse_67" data-name="Ellipse 67" class="cls-1" transform="translate(691 274)">
      <circle class="cls-3" cx="75" cy="75" r="75"/>
      <circle class="cls-4" cx="75" cy="75" r="72.5"/>
    </g>
    <g id="noun_848672_cc" transform="translate(726.461 411.384) rotate(-101)">
      <path id="Path_28" data-name="Path 28" class="cls-2" d="M77.164,45.892c1.074-1.686,11.321-17.562,12.548-19.315,2.52-3.6,3.615-6.429,3.256-8.405a3.326,3.326,0,0,0-1.4-2.2,5.137,5.137,0,0,0-4.013-.955,6.182,6.182,0,0,0-2.419,1.133c1.8-2.943,3.526-6.707.82-8.88a4.934,4.934,0,0,0-4.036-1.09c-1.852.326-3.695,1.672-5.4,3.928a5.15,5.15,0,0,0-.073-1.855,3.725,3.725,0,0,0-1.9-2.456c-4.428-2.421-8.254,3.533-11.622,8.786-.407.634-.81,1.262-1.209,1.869-.152.232-.325.494-.515.78a3.748,3.748,0,0,0-.107-.77,4.187,4.187,0,0,0-2.227-2.629c-3.418-1.884-7.01,2.643-11.174,7.884l-.929,1.167A138.247,138.247,0,0,0,35.775,38.913a34.329,34.329,0,0,0-3.646,12.118c-.4,2.531-.734,4.718-1.644,5.579C27.788,59.163,7.6,78.832,7.395,79.03a1.418,1.418,0,1,0,1.979,2.03c.2-.2,20.378-19.853,23.061-22.393,1.612-1.527,2-4.031,2.495-7.2a31.951,31.951,0,0,1,3.32-11.171A135.387,135.387,0,0,1,48.971,24.649l.935-1.173c2.5-3.142,6.273-7.888,7.584-7.166.493.272.778.55.846.825.233.946-1.124,3-2.561,5.18-.6.9-1.239,1.878-1.885,2.933l-.217.354c-2.182,3.563-3.216,5.338-2.87,6.735a1.929,1.929,0,0,0,.889,1.208,1.981,1.981,0,0,0,1.554.262c.892-.236,1.309-.967,2-2.179.271-.474.61-1.069,1.059-1.793,1.232-1.99,3.729-5.743,5.736-8.759.812-1.222,1.534-2.306,2.038-3.072.4-.615.813-1.252,1.226-1.9,2.567-4,5.769-8.978,7.878-7.829a.9.9,0,0,1,.5.624c.5,2.086-2.9,7.014-4.928,9.958-.65.944-1.248,1.812-1.714,2.55-1.176,1.862-2.674,4.079-4.122,6.223-4.925,7.292-5.174,7.848-4.843,8.834a2.186,2.186,0,0,0,1.705,1.7c1.327.2,2.137-.931,3.344-2.639.226-.319.469-.662.729-1.017,2.764-3.763,12.014-18.079,13.864-21.134,1.547-2.55,3.255-4.158,4.687-4.41a2.1,2.1,0,0,1,1.77.507c1.3,1.042-1.518,5.318-2.577,6.927-.234.356-.449.682-.629.968-.369.587-1.175,1.807-2.221,3.391-2.106,3.189-5.289,8.009-7.8,12.041-4.692,7.549-4.859,8.6-3.5,9.509a1.573,1.573,0,0,0,1.136.216c1.848-.387,10.436-13.616,13.023-17.661,1.815-2.838,4.465-6.66,6.5-7.075a2.277,2.277,0,0,1,1.846.516.5.5,0,0,1,.218.372c.16.877-.489,2.986-2.789,6.273-1.284,1.835-11.528,17.71-12.616,19.417-.174.273-.433.667-.743,1.139-4.2,6.393-4.806,7.853-4.636,8.875a1.775,1.775,0,0,0,1.164,1.511c1.114.38,1.9-.354,3.628-1.964.4-.371.857-.8,1.388-1.28a14.947,14.947,0,0,0,1.642-1.962C79.668,47.44,81.24,46,83.032,47.134c.062.039.167.114.18.174.122.553-.871,2.093-1.465,3.013-.333.516-.663,1.029-.942,1.523-2.632,4.648-8.39,10.831-10.371,11.925C66.293,66.057,60.176,68.1,55.427,66.98c-4.635-1.1-6.609-.754-9.17,1.593-2.181,2-21.21,22.926-22.02,23.816a1.418,1.418,0,0,0,2.1,1.907c6.823-7.506,20.168-22.1,21.836-23.633,1.7-1.554,2.709-1.846,6.6-.924,6.97,1.646,14.8-2.254,17.03-3.488,2.788-1.541,8.9-8.471,11.467-13.01.254-.449.556-.914.857-1.383,1.1-1.7,2.228-3.453,1.852-5.159a3.079,3.079,0,0,0-1.432-1.959c-3.528-2.235-6.456.37-8.415,2.731l.269-.409C76.719,46.578,76.985,46.172,77.164,45.892Z"/>
    </g>
  </g>
</svg>
